# xmcd
#
# Track frame offsets:
#	182
#	11797
#	22020
#	33320
#	48177
#	60615
#	72137
#	84947
#	94307
#	106017
#	116832
#	128115
#	139490
#	152660
#	167957
#	183697
#	195895
#	218532
#	230890
#	246360
#
# Disc length: 3456
#
# Revision: 5
# Processed by: cddbd v1.5.1PL0 Copyright (c) Steve Scherf et al.
# Submitted via: FreeRIP 2.92 
# Normalized: r4:TDELIM( - )
#
DISCID=170d7e14
DTITLE=Various Artist - The Blues Box - Volume 2 - Disc 1
DYEAR=1993
DGENRE=Blues
TTITLE0=Bo Diddley - Pretty Thing
TTITLE1=Canned Heat - Dimples
TTITLE2=John Lee Hooker - Boom Boom
TTITLE3=Muddy Waters - Rock Me
TTITLE4=Eric Clapton - Freight Loader
TTITLE5=Little Water - As Long As I Have You
TTITLE6=Howlin' Wolf - Back Door Man
TTITLE7=Canned Heat - Big Road Blues
TTITLE8=Muddy Waters - Goin' Home
TTITLE9=Little Waters - Blue Midnight
TTITLE10=Bo Diddley - Bo Diddley
TTITLE11=John Lee Hooker - Boogie Chillen 2
TTITLE12=Muddy Waters - Close To You
TTITLE13=Sonny Boy Williamson - Cross My Heart
TTITLE14=Mike Bloomfield - Don't You Lie To Me
TTITLE15=John Lee Hooker - Drug Store Woman
TTITLE16=B.B.King - Every Day (I Have The Blues)
TTITLE17=Howlin' Wolf - Goin' Back Home
TTITLE18=Elmore James - I Believe
TTITLE19=Little Walter - Roller Coaster
EXTD=
EXTT0=
EXTT1=
EXTT2=
EXTT3=
EXTT4=
EXTT5=
EXTT6=
EXTT7=
EXTT8=
EXTT9=
EXTT10=
EXTT11=
EXTT12=
EXTT13=
EXTT14=
EXTT15=
EXTT16=
EXTT17=
EXTT18=
EXTT19=
PLAYORDER=
